<svg width="98" height="33" viewBox="0 0 98 33" fill="none" xmlns="http://www.w3.org/2000/svg">
<g id="Cord_WordMark_Logo" clip-path="url(#clip0_625_30120)">
<path id="Vector" d="M0 23.6534C0 10.8111 10.2848 0.400391 22.9717 0.400391H82.6252C91.0833 0.400391 97.9398 7.3409 97.9398 15.9024V16.8728C97.9398 25.4344 91.0833 32.3749 82.6252 32.3749H0V23.6534Z" fill="#2E2E2E"/>
<path id="Vector_2" d="M36.2213 28.9508C29.3828 28.9508 23.8177 23.3196 23.8177 16.3999C23.8177 9.48022 29.3828 3.8252 36.2213 3.8252C43.0598 3.8252 48.625 9.4564 48.625 16.376C48.625 23.2957 43.0598 28.9508 36.2213 28.9508ZM36.2213 6.83167C31.0099 6.83167 26.7653 11.1266 26.7653 16.3999C26.7653 21.6732 31.0099 25.9682 36.2213 25.9682C41.4327 25.9682 45.6773 21.6732 45.6773 16.3999C45.6773 11.1266 41.4327 6.83167 36.2213 6.83167Z" fill="white"/>
<path id="Union" fill-rule="evenodd" clip-rule="evenodd" d="M55.8734 16.9479H62.1368C65.6035 16.9479 68.4097 14.0846 68.4097 10.6009C68.4097 7.09338 65.6035 4.25391 62.1368 4.25391H51.0303V16.9479H51.0537V28.5205H54.0249V19.2823L66.6648 28.5204L68.4097 26.1104L55.8734 16.9479ZM54.0249 13.9415H62.1368C63.9527 13.9415 65.4385 12.4382 65.4385 10.6009C65.4385 8.76361 63.9527 7.26038 62.1368 7.26038H54.0249V13.9415Z" fill="white"/>
<path id="Vector_3" d="M81.3557 28.5205H70.8146V4.25391H81.3557C88.0056 4.25391 93.4292 9.69423 93.4292 16.3991C93.4292 23.1041 88.0056 28.5205 81.3557 28.5205ZM73.8095 25.5379H81.3557C86.3785 25.5379 90.458 21.4338 90.458 16.3991C90.458 11.3645 86.3785 7.23655 81.3557 7.23655H73.8095V25.5379Z" fill="white"/>
<path id="Vector_4" d="M17.4743 17.4972C16.7905 16.8052 16.1066 16.0894 15.3992 15.3736C15.5171 15.2543 15.635 15.135 15.7529 15.0157C17.0263 13.6794 18.2289 12.2716 19.2429 10.7207C19.7381 9.95713 20.2097 9.14585 20.5399 8.28684C20.6342 8.02441 20.7285 7.73805 20.7757 7.4517C20.7757 7.40401 20.7757 7.38014 20.7992 7.30857C20.7285 7.30857 20.6813 7.30857 20.6106 7.33239C20.1154 7.42788 19.6674 7.61875 19.2193 7.83349C18.2289 8.31071 17.2857 8.93111 16.4132 9.59921C15.3284 10.4105 14.3145 11.3172 13.3241 12.2478C12.4044 13.1068 11.5555 14.0373 10.7773 15.0395C9.99914 16.0656 9.29169 17.1393 8.72574 18.2846C8.25413 19.239 7.85326 20.2412 7.64101 21.2911C7.5231 21.816 7.45235 22.3649 7.47593 22.9136C7.49951 23.2477 7.54668 23.5817 7.64101 23.9158C7.87685 24.6316 8.34846 25.085 9.05585 25.3236C9.50394 25.4668 9.97555 25.4906 10.4472 25.4906C11.1546 25.4668 11.8148 25.3236 12.4751 25.1088C13.6306 24.7509 14.6917 24.226 15.7293 23.6056C17.1442 22.7466 18.4411 21.7206 19.6438 20.5753C19.7853 20.4321 19.9504 20.2889 20.1154 20.1219C20.8228 20.8139 21.5067 21.5297 22.2141 22.2217C22.0491 22.3887 21.9076 22.5557 21.7425 22.6989C20.7285 23.6772 19.6674 24.56 18.5119 25.3474C17.1206 26.3019 15.6586 27.1132 14.0786 27.7097C13.2533 28.0199 12.4044 28.2585 11.5319 28.3778C10.6358 28.4971 9.73972 28.521 8.86724 28.3539C7.21657 28.0199 5.96675 27.1609 5.165 25.6576C4.83486 25.0373 4.6698 24.393 4.57547 23.701C4.4104 22.4125 4.57547 21.1718 4.9056 19.9549C5.25932 18.6664 5.77809 17.4495 6.41478 16.3042C7.40518 14.4907 8.63141 12.8443 10.0227 11.3411C11.414 9.83782 12.9232 8.45389 14.5738 7.23696C15.5643 6.4973 16.5783 5.80532 17.6866 5.25651C18.3704 4.92246 19.0542 4.61227 19.8089 4.44524C20.2805 4.30208 20.7992 4.25435 21.318 4.30208C22.6622 4.42138 23.5818 5.42354 23.7469 6.59274C23.8177 7.18927 23.7705 7.76193 23.629 8.31071C23.4639 8.95499 23.2281 9.59921 22.9451 10.1957C22.332 11.4842 21.5539 12.6534 20.7049 13.7987C19.856 14.9202 18.9364 15.9939 17.9695 16.9961C17.8045 17.1631 17.6394 17.3302 17.4743 17.4972Z" fill="white"/>
</g>
<defs>
<clipPath id="clip0_625_30120">
<rect width="98" height="32" fill="white" transform="translate(0 0.400391)"/>
</clipPath>
</defs>
</svg>
